<svg xmlns="http://www.w3.org/2000/svg" viewBox="0 0 1269.3 1580.76"><defs><style>.cls-1{fill:#fff;}</style></defs><g id="Слой_2" data-name="Слой 2"><g id="Layer_1" data-name="Layer 1"><path id="_6L17pX.tif" data-name="6L17pX.tif" class="cls-1" d="M191.42,482.47c-3.58,2.68-2.57,6.18-2.58,9.17-.1,32.71-.43,65.42.13,98.13.26,15.58,6.32,30.34,8.88,45.67,2.74,16.36,5.48,32.92,10.61,48.61,5.89,18,11.56,36.14,19.83,53.38,7.9,16.47,17,32.13,26.48,47.7,4.71,7.77,2.24,16-6,19.19-6.94,2.72-13.92,5.49-21.4,6.81-5.76,1-8.83-1.16-10-6.39a40.3,40.3,0,0,1-1.19-9.52c.09-10.46-.65-20.87-1.47-31.29-.56-7.11-3.89-10.41-10.83-11.54-15-2.45-29.94-1.19-44.82,1a134,134,0,0,1-18.45.91c-6.69.06-9.82-3.24-9.75-9.89.11-11.41,4-22.09,6.45-33,2.36-10.7,6.12-21.09,8.87-31.71,3-11.74,1.22-14.59-10-19.24C120,653.73,103,649.65,86.69,643.69a247.69,247.69,0,0,1-28.42-12.91c-5.32-2.74-5.42-8.6-.75-14.53A142.11,142.11,0,0,1,68.6,603.58c16.18-16.23,31.52-33.36,49.76-47.43,7.45-5.76,7.87-9.69,2.26-17.62C96.44,504.39,62.18,487,22.16,479.09c-6.55-1.3-13.24-2-18.91-6.21-4-2.93-4.51-5.2-.43-8.76,9.5-8.29,21-13.59,30.77-21.59,19.42-15.9,41.48-28.29,60.57-44.7,2.64-2.26,5.32-4.7,8.4-6.18,8.23-4,8.88-10.49,5.75-17.54a190.71,190.71,0,0,0-20-34.69C77.6,324.72,65.44,311.24,53,298c-5.31-5.68-10.64-11.29-16.78-16.14A63.15,63.15,0,0,1,26,271.67c-7.33-9.29-5-16.53,6.58-16.92,21.73-.72,43.07-4.84,64.76-5.95,25.36-1.3,50.93-.3,76-5.75,11.54-2.5,12.75-3.52,10.54-14.88-6.7-34.5-15.15-68.46-32-99.73-3.11-5.76-8.3-12.52-3.11-18.53,4.67-5.39,12-1.86,18.25-.6a323,323,0,0,1,78.17,26.6c6.47,3.16,12.42,7.38,18.82,10.71,7.79,4,12.82,2.53,16.07-5.54,12.91-32.08,25-64.34,24.84-99.8-.07-12.34,3.86-24.3,7.18-36.14,1.62-5.77,5.94-6.75,10.49-2.6,13.06,11.91,24,25.78,35.72,38.9C369.56,54,379.76,67.3,389.71,80.81c6.32,8.59,13.43,16.59,18.82,25.9,6.5,11.2,12.7,12,21.07,1.9a391.76,391.76,0,0,1,35.75-37.87c10.15-9.4,22.16-16.76,33-25.49,15.09-12.19,32.95-19.77,49-30.33,4.13-2.72,8.51-5.39,13.43-2.85,5.21,2.69,4.41,8.14,4.42,12.89.07,23.6.21,47.19,0,70.79-.22,24.11,6.57,47.09,11.25,70.37,2.2,10.9,7.85,13.09,18.25,9.38q49.94-17.82,99.85-35.69c4.15-1.49,8.5-3.23,12,.26s.32,7.38-1,11.07c-4.48,12.57-14,22.17-20,33.84-14.19,27.53-29.89,54.21-46.29,80.48-4.73,7.58-3.31,11.54,5.55,13,28.25,4.68,56.34,10.55,85,12.45,10.5.69,20.53,3.82,30.58,6.56,6.09,1.65,7.29,6.89,3.08,11.07-10.83,10.72-20.29,22.92-32.89,31.73C709,355.41,691.81,375.19,673.72,394c-5.55,5.78-4.73,8.43,2.64,11.53q42.17,17.71,84.29,35.58c.5.21,1,.42,1.47.65,13,6.4,13.38,12,1.93,20.73-15.88,12.14-34,20.31-51.85,28.71a428.31,428.31,0,0,1-71.43,26.6c-3.88,1-8,2.67-9,7.15-.88,4.14,3.11,5.67,5.43,8.17,17,18.32,40.57,26.66,60.94,39.83,5.48,3.55,13.14,6.68,12.76,14.07s-8.41,9.58-13.91,13.22c-17.47,11.57-37.79,16.17-57,23.39-9.65,3.63-11.4,6.94-8.93,17,3.27,13.32,10.26,25.31,13.49,38.55,3.13,12.85,0,16.3-13,17.29A153,153,0,0,0,596,703.16c-8.15,2.62-9.63,6.71-5.15,13.83,5.82,9.28,11.48,18.62,19.17,26.66,8,8.39,6.5,14.22-4.4,18.81-9.15,3.84-18.57,7.15-28.35,8.8-12.92,2.19-21.51,10.19-28.83,20-14.62,19.58-32.94,34.13-56.12,42.25-11.88,4.16-12.48,4.91-12.38,17.15,0,3.48,0,7,.28,10.45.61,6.56,4,10.91,10.62,12.47,32.85,7.71,64.92,18.2,97.36,27.41a66.87,66.87,0,0,0,12.62,2.37c17.43,1.5,26.79,12.13,31.42,27.79,7.28,24.61,14.65,49.18,21.29,74,3.73,13.91,10.53,26.92,13.59,41.13,5.8,27,14.93,53,22.47,79.44,5.73,20.1,10.6,40.38,16,60.53,3.62,13.4,5.12,27.34,10.58,40.3,1.4,3.34,3.21,5.53,6.65,6.15,8.33,1.51,16.49-.54,24.64-1.65,3.22-.44,4.43-4,4.59-7,1.32-24.81,12.72-46.57,23.3-67.83,7.68-15.45,11.53-32.72,22.26-46.79,6-7.82,14.17-10.37,21.92-4.47,3.5,2.66,7.46,2.59,11.24,3.74,14.88,4.53,30.75,5.93,45.17,11.08,31.82,11.35,64.85,9.68,97.5,12.42,4.08.34,11.79,2.11,11.66-2.92-.16-6.23-7.18-2.14-11.23-2.4-11.49-.77-23.2-.43-34.3-3.51-18.17-5-36.78-7.27-55.3-10.13a54.87,54.87,0,0,1-21-7.38,38.45,38.45,0,0,0-10.14-4.81c-28.71-7.47-52.54-24.52-76.3-40.78-20.39-14-34.92-34.4-48.16-55.35-7.72-12.23-10.34-26.19-14.27-39.72-1-3.31-1-7-3.76-9.56-1.82-1.65-4.18-3-6.58-1.66-2,1.11-1,3.34-.77,5.15.87,7.9,4.91,14.69,7.7,21.92,1.66,4.3,3.92,8.68.6,12.92-3.49,4.48-9,4.3-13.37,2.73-13.31-4.8-28.81-6.44-35.7-21.81-7.34-16.35-11.2-33.46-8.38-51.29,1.11-7,5.17-13.48,10.58-18.56,12.89-12.11,13.22-14.51,4.29-29.74-7.17-12.21-14.49-24.35-21.16-36.83-8.3-15.54-7.2-32.21-3.35-48.52,5.42-22.92,16.57-44.09,21.22-67.33,1.52-7.56-.93-14.82-.3-22.39,2.17-25.87,16.12-45.93,30.43-66.11,12.35-17.4,26.5-33.43,40.56-49.2,22.31-25,46.42-48.37,77.7-63.49C861.38,498.64,910.87,488,963,487c29.64-.56,58.95.84,87.49,9.65a186.06,186.06,0,0,1,45.19,20.45,116.31,116.31,0,0,0,33.55,14.79,49.45,49.45,0,0,1,22.06,12.56c27.54,26.22,49.86,56.7,68.66,89.29,11.91,20.63,25.43,40.81,32.25,64.27,4,13.92,4,28.19,4.4,42.22.53,20.45,2.86,40.6,5.94,60.7,2.42,15.77-.09,30.8-3.74,46.05-3.29,13.77-5.44,27.83-7.51,41.84-.7,4.77,1.07,9.47,4.7,13.22,23,23.8,14.78,63.82-13.68,81.83-11.88,7.51-26,11.72-35.31,23.18-6.07,7.48-12.65,14.6-18.17,22.47-14.92,21.3-35.28,36.94-54.8,53.44-8,6.79-9.57,12-3.19,20.65,15,20.36,23.56,43.74,32.87,66.81,3.85,9.56,1.2,14.7-5.52,22.36-15.22,17.34-35.63,27.76-53.2,41.91a64,64,0,0,0-7.64,7.07c-7,7.81-15,7.78-24.11,4.26-20.47-7.92-38-3.87-50.35,12.46-4.88,6.44-7.82,14.36-11.93,22.17-3.27-3.42-3-7.2-3.23-10.82-.78-12-5.26-16.7-17-16.76q-45.84-.24-91.7,0c-13.77.1-19.89,6.58-20,20.6-.18,17.7,0,35.4-.15,53.09-.09,11.85-3.16,15.27-14.75,16.69-7.51.92-14.74,2.45-21.34,6.47-10.84,6.59-22.84,5.32-34.45,3.72-8.75-1.2-14-8.66-19.09-15.1-12.23-15.49-23.55-31.9-37.69-45.59-9.14-8.85-19.39-17.34-27.39-26.72-12.32-14.47-26.86-13.23-42.23-13.27-19.3,0-38.61-.09-57.91,0-16.06.11-21.32,5.11-21.49,21.19-.25,24.67-.07,49.34-.07,74,0,6.23.55,13-7.18,15.27-7.91,2.38-13.31-2.42-16.44-8.48-5.31-10.28-12.56-19.26-18.19-29.29-10.38-18.48-27.53-30.15-43.85-42.7-13.91-10.7-30.61-15.33-46.36-21.71-14.56-5.91-30.7-7-46.23-9.85-38.57-7-76.31-1.61-113.84,7.11-7.31,1.69-13.56,6.3-21,7.9-6.29,1.34-12.35,1.64-17.85-2-20.25-13.33-41.19-25.38-60.49-40.46-17.06-13.34-33.9-26.91-50.42-40.89-12.84-10.87-25.31-22.18-37.88-33.37-4.54-4-4.36-9.92-2.17-14.17,10.32-20.1,12.67-42.55,19.53-63.65,10.67-32.8,20.48-65.91,29.15-99.33q5.75-22.14,12.24-44.08c2.73-9.21,9.72-15,18.44-17.67,26.12-8.06,51.31-18.67,77.41-26.86,17.85-5.6,35.89-10.64,53.64-16.59,8.2-2.75,15-11.21,15.42-18.82.54-9.46-5.38-14-13-17.22-19.48-8.32-38.71-17-55.67-30.06-11.33-8.72-18.28-20.8-25.24-32.7a379.12,379.12,0,0,1-39.55-95.4c-7.92-30-14.54-59.74-14.52-90.82a55.71,55.71,0,0,0-1.73-13.53c-5.83-23.22-5.65-46.64-3.31-70.26C193.88,493.42,195.26,487.61,191.42,482.47Zm754.93,335.7c.77-18.1-4.71-34.64-11.57-50.67a45.83,45.83,0,0,0-12-16.89c-7.14-6.12-10.91-5.3-13.57,3.64a41.35,41.35,0,0,1-24.68,27.09c-20.81,8.2-42.33,15.06-64.78,18a387.23,387.23,0,0,1-54.46,3.29c-10.21-.09-14.88,4.24-14.77,13.89.18,17.06,2.41,33.86,13.3,47.91,19.24,24.79,42.85,41.8,75.5,44.82,30.92,2.87,57.68-6.82,79.75-26.79C937.37,865.91,947.08,843.6,946.35,818.17Zm46.44-4.84c.36,6.14-.36,12.58,1.25,18.37,6.69,24.1,20.8,43.17,41.82,56.69,6.47,4.16,12.26,9.76,20,11.69,26.49,6.57,52.41,6.12,77.68-5.66,33.77-15.73,53.25-41.08,54.19-79.11.32-12.78-1.62-14.3-14.23-14.46-18.46-.24-37,1.3-55.39-1.14s-36.21-8.06-53.16-15c-13.59-5.6-27.77-11.65-35.52-26.55-4.92-9.44-8.8-9.5-15.37-1.06C1001.31,773.49,991,791.18,992.79,813.33ZM380.25,430.93c-1.62-10.78-1.74-25.81-10.05-37.52-11.64-16.43-29.08-25.7-48.53-30.23-13.62-3.18-26.47-.67-39.58,5.38-22,10.16-36.57,26-44.78,48.46-4.17,11.35-2.64,22.52-.56,34,2.19,12.06,7.9,16.26,19.87,14,14.72-2.76,29.47-5.25,44.59-5.35,21.26-.15,42.23,1.42,62.86,6.89,7.56,2,11.43-.3,12.94-7.77C378.65,450.72,380.57,442.58,380.25,430.93ZM566.59,448.8c2.19-20.49-13.89-35-29.16-41.27-13.64-5.64-27.91-10.4-43-11.71-15.5-1.34-30.87-2.73-46.37.09-14.74,2.68-22,10-24.8,24.23-1.5,7.64.46,14.91.51,22.36.06,8.9,3.2,12.05,12.09,12.47,13.36.64,26.74,1.41,40.1,1.32,14-.09,27.76,2.08,41.42,4.57,10.91,2,22,3,31.83,9.82,6.33,4.41,10.24,2,13.62-5.45C565.25,459.81,567.45,454.39,566.59,448.8Zm-57.9,451.4c-1.05,3.47.24,5,1.15,6.55,15,26,30.77,51.43,44,78.46,16.24,33.21,31.68,66.7,45.06,101.13,5.32,13.68,3.87,26.52-7.83,36.58-16.1,13.83-30.07,29.8-45.46,44.34-5.48,5.17-5.38,10.32-1.39,16.43,4.33,6.63,10.24,11.17,16.39,16a308.47,308.47,0,0,1,33.67,29.66c3.13,3.26,7.79,6.85,11.6,1.73,3.61-4.86-1.52-7.37-4.87-10-5.69-4.45-13.31-6.11-18-11.74-7-8.29-16.22-14.66-20.69-25a12.1,12.1,0,0,0-3.7-4.16c-9.67-7.7-9.85-8.38-.67-17,13.84-13,28.18-25.53,41.73-38.84,9.67-9.49,13.13-20.86,8.22-34.52-3.73-10.38-9.42-19.86-12.92-30.27-10.37-30.82-26.16-59.18-40.42-88.21-6.7-13.65-14.61-26.75-22.57-39.73C525.29,920.66,519.14,909.33,508.69,900.2Zm500,445.6c.56,4.64,4.5,7.68,9.51,6.42,9.07-2.29,13.35-9.27,15.59-17.74,1.94-7.36.42-13.8-5.61-18.79-7.23-6-14.19-12.14-17.91-21.66C1006.75,1311.3,1006.67,1328.57,1008.73,1345.8Z"/><path class="cls-1" d="M388.9,1526.72q-17.38,0-29.91-12.83-14-14.3-14.7-38.41-.63-23.38,11.8-41.2,14.49-21,40.37-21,20.7,0,31.36,18.94,8.49,15.33,8.18,36.85-.31,23-12,39.24Q410.75,1526.72,388.9,1526.72Zm6.21-92.44q-15.21-.1-23.7,14.49a52.58,52.58,0,0,0-6.73,26.71q0,15,8.18,23.4a21.8,21.8,0,0,0,16,6.93,25.1,25.1,0,0,0,18.53-7.87q8.81-8.68,9.32-23.49Q418.19,1434.39,395.11,1434.28Z"/><path class="cls-1" d="M500.39,1526.72q-17.4,0-29.92-12.83-14-14.3-14.7-38.41-.61-23.38,11.8-41.2,14.49-21,40.37-21,20.71,0,31.37,18.94,8.49,15.33,8.18,36.85-.32,23-12,39.24Q522.23,1526.72,500.39,1526.72Zm6.21-92.44q-15.23-.1-23.71,14.49a52.68,52.68,0,0,0-6.72,26.71q0,15,8.17,23.4a21.84,21.84,0,0,0,16.05,6.93,25.13,25.13,0,0,0,18.53-7.87q8.79-8.68,9.31-23.49Q529.69,1434.39,506.6,1434.28Z"/><path class="cls-1" d="M617.05,1524.24a89.3,89.3,0,0,1-22.77-3.31l-.21,49.48a10.18,10.18,0,0,1-2.85,7.45,10.63,10.63,0,0,1-14.59,0,10.18,10.18,0,0,1-2.85-7.45l.31-41.41v-41.3q-.32-22.68-1.55-41.31l-1.55-21a26.15,26.15,0,0,1,2.69-12.42q3.11-6.11,9-6.11a9,9,0,0,1,6.78,2.85,9.69,9.69,0,0,1,2.75,7c0,.63-.11,1.76-.31,3.42q-.52,3.21-.73,5.9a79.38,79.38,0,0,1,17.18-9.16,45.92,45.92,0,0,1,15.84-3q21.22,0,31.06,18.84,7.75,14.89,7.76,39.44,0,22.35-12,36.85Q638.27,1524.24,617.05,1524.24Zm7.14-89.75a34.84,34.84,0,0,0-17.18,4.24q-5.49,3-13.87,11,1.33,23.49,1.34,49.37a62.4,62.4,0,0,0,22.57,4.35q12.94,0,19.77-9.63,5.91-8.38,5.9-21.73,0-18.84-4.6-28.21T624.19,1434.49Z"/><path class="cls-1" d="M756.28,1440.91c-3.8,0-6.45-1.28-8-3.83q-1.56-2.7-2.69-11.18-7.77,2-23.92,7.24-16.66,6.63-16.77,16.36a35.72,35.72,0,0,0,6.11,1.66q23.81,4.24,35.4,11.69,16.88,10.88,16.88,31.47,0,16.88-14.6,25.47-12.11,7-30.64,7a73.94,73.94,0,0,1-25.88-4.56q-15.94-5.79-15.94-16.15a9.71,9.71,0,0,1,3.26-7.24,10.46,10.46,0,0,1,7.4-3.11q3.21,0,8.28,5,2.49,2.38,11.18,3.93a68.33,68.33,0,0,0,11.7,1.25,51.44,51.44,0,0,0,15.32-2.07q9.63-3,9.63-9.53,0-14.07-19.67-19l-10.77-2.38q-13.76-3-19.56-7-8.38-5.79-8.38-17.49,0-21.63,20.39-30.85a158,158,0,0,1,19.87-6.67q13.67-3.88,19.57-6.58a22.69,22.69,0,0,1,9.21-1.86,9.8,9.8,0,0,1,7.3,2.9,10.31,10.31,0,0,1,2.85,7.55,44.15,44.15,0,0,0,1.29,8.8,44.34,44.34,0,0,1,1.29,8.8,10.35,10.35,0,0,1-2.84,7.56A9.8,9.8,0,0,1,756.28,1440.91Z"/><path class="cls-1" d="M802.86,1530.24a12.8,12.8,0,1,1,9.06-3.72A12.41,12.41,0,0,1,802.86,1530.24Z"/><path class="cls-1" d="M855.65,1530.24a12.8,12.8,0,1,1,9.06-3.72A12.41,12.41,0,0,1,855.65,1530.24Z"/><path class="cls-1" d="M908.45,1530.24a12.8,12.8,0,1,1,9-3.72A12.39,12.39,0,0,1,908.45,1530.24Z"/></g></g></svg>